<svg width="40" height="40" viewBox="0 0 40 40" fill="none" xmlns="http://www.w3.org/2000/svg">
<path d="M23.3334 3.33333H10C9.11597 3.33333 8.26812 3.68452 7.643 4.30964C7.01788 4.93476 6.66669 5.78261 6.66669 6.66667V33.3333C6.66669 34.2174 7.01788 35.0652 7.643 35.6904C8.26812 36.3155 9.11597 36.6667 10 36.6667H30C30.8841 36.6667 31.7319 36.3155 32.357 35.6904C32.9822 35.0652 33.3334 34.2174 33.3334 33.3333V13.3333M23.3334 3.33333L33.3334 13.3333M23.3334 3.33333V13.3333H33.3334M26.6667 21.6667H13.3334M26.6667 28.3333H13.3334M16.6667 15H13.3334" stroke="#1E1E1E" stroke-width="4" stroke-linecap="round" stroke-linejoin="round"/>
</svg>
